<svg width="48" height="32" viewBox="0 0 48 32" fill="none" xmlns="http://www.w3.org/2000/svg">
<path d="M29.6667 15.3333C31.6917 15.3333 33.3333 13.6917 33.3333 11.6667C33.3333 9.64162 31.6917 8 29.6667 8C27.6416 8 26 9.64162 26 11.6667C26 13.6917 27.6416 15.3333 29.6667 15.3333Z" fill="white"/>
<rect x="31.3333" y="2.66663" width="2" height="8.66667" fill="white"/>
<rect x="31.3333" y="0.666626" width="7.33333" height="4" rx="2" fill="white"/>
<path d="M25.6667 31.3333C27.6917 31.3333 29.3333 29.6917 29.3333 27.6667C29.3333 25.6416 27.6917 24 25.6667 24C23.6416 24 22 25.6416 22 27.6667C22 29.6917 23.6416 31.3333 25.6667 31.3333Z" fill="white"/>
<rect x="27.3333" y="18.6666" width="2" height="8.66667" fill="white"/>
<rect x="27.3333" y="16.6666" width="7.33333" height="4" rx="2" fill="white"/>
<path d="M37.6667 27.3333C39.6917 27.3333 41.3333 25.6917 41.3333 23.6667C41.3333 21.6416 39.6917 20 37.6667 20C35.6416 20 34 21.6416 34 23.6667C34 25.6917 35.6416 27.3333 37.6667 27.3333Z" fill="white"/>
<rect x="39.3333" y="14.6666" width="2" height="8.66667" fill="white"/>
<rect x="39.3333" y="12.6666" width="7.33333" height="4" rx="2" fill="white"/>
<path d="M11.4188 7.12946C12.0806 6.6567 13 7.12982 13 7.94319V24.0568C13 24.8702 12.0806 25.3433 11.4188 24.8705L6 21H3C1.89543 21 1 20.1046 1 19V13C1 11.8954 1.89543 11 3 11H6L11.4188 7.12946Z" fill="white"/>
<path d="M15.9938 20.9053C17.2346 19.6422 18 17.9105 18 16C18 14.0814 17.2282 12.3432 15.9781 11.0787" stroke="white" stroke-width="2" stroke-linecap="round" stroke-linejoin="round"/>
<path d="M18.7782 8.2218C20.7688 10.2124 22 12.9624 22 16C22 19.0375 20.7688 21.7875 18.7782 23.7782" stroke="white" stroke-width="2" stroke-linecap="round" stroke-linejoin="round"/>
</svg>
